<?xml version="1.0" encoding="iso-8859-1"?>
<!-- Uploaded to: SVG Repo, www.svgrepo.com, Generator: SVG Repo Mixer Tools -->
<svg version="1.1" id="Layer_1" xmlns="http://www.w3.org/2000/svg" xmlns:xlink="http://www.w3.org/1999/xlink" 
	 viewBox="0 0 512 512" xml:space="preserve">
<polygon style="fill:#ACD4F3;" points="371.678,80.35 342.492,80.35 342.492,0.001 403.064,0.001 "/>
<path style="fill:#3C66B1;" d="M355.668,242.403l4.544-53.515l2.386-28.093l11.354-133.681
	c1.368-16.108,14.468-28.269,29.112-27.026l0,0c14.644,1.244,25.506,15.44,24.137,31.548l-18.284,215.289V512H214.803v-11.169
	c0-15.928,12.913-28.841,28.841-28.841h80.137c17.61,0,31.886-14.276,31.886-31.886v-31.3v-38.748v-50.1L355.668,242.403
	L355.668,242.403z"/>
<g>
	<polygon style="opacity:0.31;fill:#3E3B43;enable-background:new    ;" points="360.576,184.607 358.86,204.818 412.493,204.818 
		414.845,177.117 	"/>
	<polygon style="opacity:0.29;fill:#3E3B43;enable-background:new    ;" points="355.648,351.131 355.582,287.361 408.59,285.369 
		408.59,348.815 	"/>
</g>
<g>
	<rect x="190.511" y="138.222" style="fill:#52A2E7;" width="52.364" height="25.638"/>
	<path style="fill:#52A2E7;" d="M186.275,250.782H374.33c19.022,0,34.586,15.564,34.586,34.586l0,0
		c0,19.022-15.564,34.586-34.586,34.586H119.269c-19.022,0-34.586-15.564-34.586-34.586l0,0c0-19.022,15.564-34.586,34.586-34.586
		h20.387L186.275,250.782L186.275,250.782z"/>
</g>
<path style="opacity:0.22;fill:#315591;enable-background:new    ;" d="M376.401,250.876c4.471,5.829,7.141,13.103,7.141,20.973l0,0
	c0,19.022-15.564,34.586-34.586,34.586H93.893c-0.807,0-1.604-0.038-2.397-0.093c6.335,8.259,16.294,13.613,27.446,13.613h255.062
	c19.022,0,34.586-15.564,34.586-34.586l0,0C408.59,267.153,394.315,252.118,376.401,250.876z"/>
<circle style="opacity:0.31;fill:#3E3B43;enable-background:new    ;" cx="367.006" cy="283.269" r="11.422"/>
<path style="fill:#3C66B1;" d="M266.99,160.796h-86.86v5.868v22.224v19.53h41.754v-8.185c0-6.266,5.08-11.345,11.345-11.345h180.617
	l2.386-28.093H308.74h-41.75V160.796z"/>
</svg>