<svg xmlns="http://www.w3.org/2000/svg" xmlns:xlink="http://www.w3.org/1999/xlink" width="500" zoomAndPan="magnify" viewBox="0 0 375 374.999991" height="500" preserveAspectRatio="xMidYMid meet" version="1.0"><defs><clipPath id="3a5d37234a"><path d="M 60.9375 60.9375 L 314.0625 60.9375 L 314.0625 314.0625 L 60.9375 314.0625 Z M 60.9375 60.9375 " clip-rule="nonzero"/></clipPath><clipPath id="1da4aabc7e"><path d="M 187.5 60.9375 C 117.601562 60.9375 60.9375 117.601562 60.9375 187.5 C 60.9375 257.398438 117.601562 314.0625 187.5 314.0625 C 257.398438 314.0625 314.0625 257.398438 314.0625 187.5 C 314.0625 117.601562 257.398438 60.9375 187.5 60.9375 Z M 187.5 60.9375 " clip-rule="nonzero"/></clipPath><clipPath id="3bd8e9d54b"><path d="M 73.871094 73.871094 L 301.128906 73.871094 L 301.128906 301.128906 L 73.871094 301.128906 Z M 73.871094 73.871094 " clip-rule="nonzero"/></clipPath><clipPath id="229d73279e"><path d="M 187.5 73.871094 C 124.746094 73.871094 73.871094 124.746094 73.871094 187.5 C 73.871094 250.253906 124.746094 301.128906 187.5 301.128906 C 250.253906 301.128906 301.128906 250.253906 301.128906 187.5 C 301.128906 124.746094 250.253906 73.871094 187.5 73.871094 Z M 187.5 73.871094 " clip-rule="nonzero"/></clipPath><clipPath id="543cae6e68"><path d="M 79.910156 79.910156 L 295.089844 79.910156 L 295.089844 295.089844 L 79.910156 295.089844 Z M 79.910156 79.910156 " clip-rule="nonzero"/></clipPath><clipPath id="cef731e837"><path d="M 187.5 79.910156 C 128.078125 79.910156 79.910156 128.078125 79.910156 187.5 C 79.910156 246.921875 128.078125 295.089844 187.5 295.089844 C 246.921875 295.089844 295.089844 246.921875 295.089844 187.5 C 295.089844 128.078125 246.921875 79.910156 187.5 79.910156 Z M 187.5 79.910156 " clip-rule="nonzero"/></clipPath><clipPath id="7fa6c7b9af"><path d="M 232 253 L 233 253 L 233 254 L 232 254 Z M 232 253 " clip-rule="nonzero"/></clipPath><clipPath id="837065e6e4"><path d="M 65.847656 158.71875 L 216.414062 62.847656 L 313.902344 215.945312 L 163.335938 311.816406 Z M 65.847656 158.71875 " clip-rule="nonzero"/></clipPath><clipPath id="236b8c0cad"><path d="M 65.847656 158.71875 L 216.414062 62.847656 L 313.902344 215.945312 L 163.335938 311.816406 Z M 65.847656 158.71875 " clip-rule="nonzero"/></clipPath><clipPath id="fe2279aaa2"><path d="M 108 105 L 260 105 L 260 273 L 108 273 Z M 108 105 " clip-rule="nonzero"/></clipPath><clipPath id="7f232547b8"><path d="M 65.847656 158.71875 L 216.414062 62.847656 L 313.902344 215.945312 L 163.335938 311.816406 Z M 65.847656 158.71875 " clip-rule="nonzero"/></clipPath><clipPath id="68b0295162"><path d="M 65.847656 158.71875 L 216.414062 62.847656 L 313.902344 215.945312 L 163.335938 311.816406 Z M 65.847656 158.71875 " clip-rule="nonzero"/></clipPath><clipPath id="bdf22230d6"><path d="M 232 253 L 233 253 L 233 254 L 232 254 Z M 232 253 " clip-rule="nonzero"/></clipPath><clipPath id="f5d6168e17"><path d="M 65.847656 158.71875 L 216.414062 62.847656 L 313.902344 215.945312 L 163.335938 311.816406 Z M 65.847656 158.71875 " clip-rule="nonzero"/></clipPath><clipPath id="db269c7270"><path d="M 65.847656 158.71875 L 216.414062 62.847656 L 313.902344 215.945312 L 163.335938 311.816406 Z M 65.847656 158.71875 " clip-rule="nonzero"/></clipPath><clipPath id="5b15935377"><path d="M 109 104 L 249 104 L 249 272 L 109 272 Z M 109 104 " clip-rule="nonzero"/></clipPath><clipPath id="6a7c33d485"><path d="M 65.847656 158.71875 L 216.414062 62.847656 L 313.902344 215.945312 L 163.335938 311.816406 Z M 65.847656 158.71875 " clip-rule="nonzero"/></clipPath><clipPath id="436a101a3d"><path d="M 65.847656 158.71875 L 216.414062 62.847656 L 313.902344 215.945312 L 163.335938 311.816406 Z M 65.847656 158.71875 " clip-rule="nonzero"/></clipPath><clipPath id="d82a7dcb8e"><path d="M 103 100 L 264 100 L 264 278 L 103 278 Z M 103 100 " clip-rule="nonzero"/></clipPath><clipPath id="d322434be5"><path d="M 65.847656 158.71875 L 216.414062 62.847656 L 313.902344 215.945312 L 163.335938 311.816406 Z M 65.847656 158.71875 " clip-rule="nonzero"/></clipPath><clipPath id="90c6521e0f"><path d="M 65.847656 158.71875 L 216.414062 62.847656 L 313.902344 215.945312 L 163.335938 311.816406 Z M 65.847656 158.71875 " clip-rule="nonzero"/></clipPath><clipPath id="de63f2d89b"><path d="M 106 103 L 262 103 L 262 275 L 106 275 Z M 106 103 " clip-rule="nonzero"/></clipPath><clipPath id="0b6d0e048f"><path d="M 65.847656 158.71875 L 216.414062 62.847656 L 313.902344 215.945312 L 163.335938 311.816406 Z M 65.847656 158.71875 " clip-rule="nonzero"/></clipPath><clipPath id="0ff075b456"><path d="M 65.847656 158.71875 L 216.414062 62.847656 L 313.902344 215.945312 L 163.335938 311.816406 Z M 65.847656 158.71875 " clip-rule="nonzero"/></clipPath><clipPath id="86f4fcb165"><path d="M 232 253 L 233 253 L 233 254 L 232 254 Z M 232 253 " clip-rule="nonzero"/></clipPath><clipPath id="4c8c56cdf6"><path d="M 65.847656 158.71875 L 216.414062 62.847656 L 313.902344 215.945312 L 163.335938 311.816406 Z M 65.847656 158.71875 " clip-rule="nonzero"/></clipPath><clipPath id="37eac13a43"><path d="M 65.847656 158.71875 L 216.414062 62.847656 L 313.902344 215.945312 L 163.335938 311.816406 Z M 65.847656 158.71875 " clip-rule="nonzero"/></clipPath></defs><g clip-path="url(#3a5d37234a)"><g clip-path="url(#1da4aabc7e)"><path fill="#ff6600" d="M 60.9375 60.9375 L 314.0625 60.9375 L 314.0625 314.0625 L 60.9375 314.0625 Z M 60.9375 60.9375 " fill-opacity="1" fill-rule="nonzero"/></g></g><g clip-path="url(#3bd8e9d54b)"><g clip-path="url(#229d73279e)"><path fill="#ffffff" d="M 73.871094 73.871094 L 301.128906 73.871094 L 301.128906 301.128906 L 73.871094 301.128906 Z M 73.871094 73.871094 " fill-opacity="1" fill-rule="nonzero"/></g></g><g clip-path="url(#543cae6e68)"><g clip-path="url(#cef731e837)"><path fill="#ff6600" d="M 79.910156 79.910156 L 295.089844 79.910156 L 295.089844 295.089844 L 79.910156 295.089844 Z M 79.910156 79.910156 " fill-opacity="1" fill-rule="nonzero"/></g></g><g clip-path="url(#7fa6c7b9af)"><g clip-path="url(#837065e6e4)"><g clip-path="url(#236b8c0cad)"><path fill="#ffffff" d="M 232.792969 253.191406 L 232.773438 253.15625 L 232.796875 253.1875 Z M 232.792969 253.191406 " fill-opacity="1" fill-rule="nonzero"/></g></g></g><g clip-path="url(#fe2279aaa2)"><g clip-path="url(#7f232547b8)"><g clip-path="url(#68b0295162)"><path fill="#ffffff" d="M 259.921875 139.847656 L 234.058594 156.320312 C 233.644531 155.785156 233.222656 155.261719 232.792969 154.75 C 232.136719 153.96875 231.464844 153.207031 230.769531 152.472656 C 229.789062 151.433594 228.777344 150.4375 227.726562 149.492188 C 226.96875 148.808594 226.195312 148.148438 225.40625 147.515625 C 224.292969 146.621094 223.148438 145.777344 221.972656 144.980469 C 221.128906 144.40625 220.269531 143.863281 219.398438 143.339844 C 218.175781 142.609375 216.921875 141.929688 215.648438 141.304688 C 214.734375 140.851562 213.808594 140.429688 212.871094 140.03125 C 211.558594 139.476562 210.226562 138.972656 208.875 138.523438 C 207.910156 138.203125 206.9375 137.910156 205.957031 137.644531 C 204.582031 137.273438 203.191406 136.957031 201.792969 136.695312 C 200.792969 136.511719 199.789062 136.351562 198.777344 136.222656 C 197.367188 136.042969 195.949219 135.917969 194.523438 135.847656 C 193.507812 135.800781 192.492188 135.78125 191.472656 135.789062 C 190.050781 135.800781 188.628906 135.871094 187.207031 135.996094 C 186.195312 136.085938 185.1875 136.207031 184.175781 136.355469 C 182.773438 136.5625 181.375 136.828125 179.980469 137.148438 C 178.988281 137.375 178.003906 137.632812 177.023438 137.921875 C 175.664062 138.320312 174.3125 138.773438 172.972656 139.285156 C 172.023438 139.648438 171.082031 140.039062 170.148438 140.460938 C 168.859375 141.042969 167.582031 141.679688 166.324219 142.371094 C 165.566406 142.789062 164.816406 143.226562 164.070312 143.683594 C 163.960938 143.75 163.847656 143.820312 163.734375 143.890625 L 163.691406 143.917969 C 163.578125 143.992188 163.46875 144.0625 163.355469 144.132812 C 162.253906 144.832031 161.1875 145.566406 160.160156 146.335938 C 159.335938 146.945312 158.535156 147.574219 157.757812 148.226562 C 156.65625 149.144531 155.597656 150.105469 154.585938 151.101562 C 153.929688 151.746094 153.289062 152.40625 152.671875 153.082031 C 152.601562 153.15625 152.535156 153.230469 152.46875 153.304688 C 151.996094 153.828125 151.535156 154.355469 151.085938 154.894531 C 150.621094 155.449219 150.164062 156.015625 149.726562 156.589844 C 149.101562 157.398438 148.503906 158.226562 147.929688 159.070312 C 147.125 160.253906 146.367188 161.464844 145.664062 162.703125 C 145.160156 163.589844 144.679688 164.492188 144.230469 165.40625 C 143.9375 165.988281 143.660156 166.578125 143.390625 167.175781 C 143.074219 167.882812 142.769531 168.59375 142.484375 169.3125 C 142.46875 169.347656 142.457031 169.382812 142.441406 169.417969 C 142.078125 170.332031 141.742188 171.253906 141.429688 172.183594 C 140.976562 173.539062 140.578125 174.90625 140.234375 176.296875 C 139.988281 177.285156 139.769531 178.277344 139.582031 179.28125 C 139.320312 180.683594 139.109375 182.09375 138.957031 183.511719 L 138.945312 183.628906 C 138.859375 184.441406 138.792969 185.253906 138.742188 186.070312 C 138.734375 186.230469 138.726562 186.390625 138.71875 186.550781 C 138.644531 187.972656 138.632812 189.398438 138.675781 190.828125 C 138.707031 191.84375 138.765625 192.859375 138.855469 193.875 C 138.980469 195.289062 139.164062 196.703125 139.402344 198.113281 C 139.550781 198.976562 139.71875 199.839844 139.910156 200.699219 C 139.941406 200.835938 139.972656 200.96875 140 201.101562 C 140.152344 201.761719 140.320312 202.425781 140.5 203.082031 C 140.695312 203.796875 140.902344 204.511719 141.128906 205.222656 C 141.4375 206.191406 141.773438 207.148438 142.136719 208.105469 C 142.644531 209.429688 143.207031 210.738281 143.828125 212.03125 C 144.261719 212.945312 144.730469 213.851562 145.222656 214.746094 C 145.570312 215.375 145.929688 215.996094 146.304688 216.613281 C 146.515625 216.960938 146.730469 217.304688 146.949219 217.652344 C 147.109375 217.90625 147.273438 218.15625 147.4375 218.40625 C 147.503906 218.507812 147.570312 218.605469 147.636719 218.703125 C 148.136719 219.453125 148.65625 220.1875 149.191406 220.90625 C 150.050781 222.054688 150.949219 223.160156 151.886719 224.222656 C 152.5625 224.992188 153.253906 225.738281 153.96875 226.457031 C 154.972656 227.476562 156.015625 228.449219 157.09375 229.375 C 157.210938 229.476562 157.332031 229.578125 157.453125 229.679688 C 158.078125 230.207031 158.714844 230.71875 159.359375 231.214844 C 159.394531 231.242188 159.433594 231.273438 159.46875 231.300781 C 160.605469 232.167969 161.773438 232.984375 162.972656 233.757812 C 163.832031 234.308594 164.703125 234.835938 165.59375 235.335938 C 166.835938 236.035156 168.105469 236.6875 169.398438 237.285156 C 170.296875 237.699219 171.203125 238.085938 172.121094 238.453125 C 172.152344 238.464844 172.179688 238.476562 172.210938 238.488281 C 172.941406 238.777344 173.675781 239.050781 174.421875 239.304688 C 175.027344 239.515625 175.636719 239.710938 176.25 239.898438 C 177.222656 240.195312 178.207031 240.464844 179.195312 240.707031 C 180.582031 241.046875 181.980469 241.328125 183.390625 241.554688 C 184.394531 241.714844 185.40625 241.851562 186.421875 241.953125 C 187.203125 242.035156 187.988281 242.097656 188.777344 242.144531 C 189.414062 242.179688 190.050781 242.207031 190.6875 242.222656 C 190.863281 242.226562 191.039062 242.226562 191.214844 242.230469 C 192.054688 242.242188 192.898438 242.230469 193.742188 242.203125 C 195.164062 242.15625 196.585938 242.046875 198.007812 241.882812 C 199.015625 241.769531 200.023438 241.625 201.03125 241.449219 C 202.429688 241.203125 203.820312 240.90625 205.210938 240.546875 C 205.339844 240.511719 205.472656 240.480469 205.601562 240.441406 C 206.378906 240.238281 207.148438 240.011719 207.917969 239.769531 C 207.996094 239.742188 208.070312 239.71875 208.144531 239.695312 C 209.496094 239.261719 210.835938 238.773438 212.160156 238.222656 C 213.097656 237.835938 214.03125 237.421875 214.953125 236.976562 C 215.308594 236.804688 215.664062 236.628906 216.019531 236.449219 L 218.570312 240.277344 L 226.625 252.363281 L 229.171875 256.191406 L 231.726562 260.023438 L 233.007812 261.949219 C 232.210938 262.398438 231.40625 262.835938 230.59375 263.261719 C 229.691406 263.734375 228.777344 264.1875 227.859375 264.628906 C 226.570312 265.242188 225.265625 265.824219 223.949219 266.371094 C 223.210938 266.679688 222.472656 266.976562 221.726562 267.261719 C 221.519531 267.339844 221.3125 267.417969 221.105469 267.496094 C 219.769531 267.996094 218.421875 268.460938 217.058594 268.890625 C 216.085938 269.199219 215.109375 269.488281 214.125 269.757812 C 212.75 270.140625 211.367188 270.484375 209.972656 270.792969 C 208.976562 271.015625 207.976562 271.21875 206.976562 271.402344 C 206.585938 271.472656 206.195312 271.542969 205.800781 271.609375 C 204.789062 271.78125 203.769531 271.933594 202.75 272.066406 C 201.738281 272.199219 200.726562 272.3125 199.710938 272.410156 C 198.289062 272.542969 196.867188 272.640625 195.441406 272.703125 C 194.421875 272.746094 193.402344 272.773438 192.382812 272.777344 C 191.464844 272.785156 190.546875 272.777344 189.628906 272.753906 C 189.121094 272.738281 188.613281 272.722656 188.105469 272.699219 C 187.089844 272.652344 186.070312 272.589844 185.054688 272.507812 C 183.632812 272.394531 182.214844 272.242188 180.800781 272.054688 C 179.789062 271.921875 178.78125 271.769531 177.777344 271.601562 C 176.402344 271.367188 175.035156 271.101562 173.675781 270.800781 L 173.578125 270.78125 C 172.585938 270.558594 171.59375 270.320312 170.609375 270.0625 C 169.230469 269.710938 167.859375 269.316406 166.5 268.886719 C 165.53125 268.578125 164.5625 268.253906 163.605469 267.914062 C 162.257812 267.4375 160.925781 266.925781 159.613281 266.378906 C 159.203125 266.210938 158.800781 266.039062 158.394531 265.863281 C 157.863281 265.636719 157.335938 265.398438 156.8125 265.15625 C 155.515625 264.5625 154.234375 263.9375 152.96875 263.277344 C 152.066406 262.808594 151.171875 262.320312 150.285156 261.816406 C 149.046875 261.113281 147.824219 260.375 146.625 259.609375 C 145.816406 259.09375 145.015625 258.5625 144.226562 258.019531 C 144.179688 257.988281 144.128906 257.953125 144.082031 257.917969 C 142.910156 257.109375 141.757812 256.269531 140.628906 255.398438 C 139.820312 254.777344 139.027344 254.140625 138.242188 253.488281 C 137.148438 252.578125 136.074219 251.640625 135.027344 250.675781 C 134.277344 249.984375 133.542969 249.28125 132.820312 248.5625 C 132.425781 248.171875 132.035156 247.777344 131.648438 247.378906 C 131.042969 246.753906 130.449219 246.121094 129.863281 245.476562 C 129.179688 244.722656 128.507812 243.957031 127.851562 243.179688 C 126.929688 242.089844 126.039062 240.980469 125.175781 239.84375 C 124.558594 239.035156 123.957031 238.214844 123.371094 237.382812 C 122.605469 236.300781 121.867188 235.195312 121.152344 234.078125 C 121.101562 233.992188 121.050781 233.910156 120.996094 233.828125 C 120.453125 232.96875 119.925781 232.097656 119.414062 231.21875 C 118.695312 229.988281 118.011719 228.738281 117.355469 227.472656 C 116.890625 226.566406 116.4375 225.65625 116.003906 224.734375 C 115.394531 223.445312 114.820312 222.140625 114.28125 220.824219 C 114.027344 220.199219 113.777344 219.574219 113.539062 218.945312 C 113.414062 218.625 113.292969 218.300781 113.175781 217.976562 C 112.683594 216.640625 112.230469 215.289062 111.804688 213.929688 C 111.503906 212.957031 111.222656 211.980469 110.957031 211 C 110.582031 209.625 110.246094 208.238281 109.945312 206.84375 C 109.730469 205.847656 109.535156 204.851562 109.355469 203.847656 C 109.308594 203.582031 109.261719 203.3125 109.21875 203.046875 C 109.027344 201.910156 108.859375 200.769531 108.71875 199.621094 C 108.589844 198.609375 108.484375 197.597656 108.394531 196.582031 C 108.269531 195.164062 108.179688 193.742188 108.128906 192.316406 C 108.089844 191.292969 108.070312 190.273438 108.070312 189.253906 C 108.070312 188.464844 108.078125 187.671875 108.101562 186.882812 C 108.121094 186.246094 108.144531 185.613281 108.175781 184.976562 C 108.230469 183.960938 108.300781 182.945312 108.390625 181.933594 C 108.515625 180.511719 108.675781 179.09375 108.875 177.679688 C 109.011719 176.671875 109.171875 175.664062 109.347656 174.660156 C 109.566406 173.417969 109.816406 172.175781 110.089844 170.945312 L 110.199219 170.46875 C 110.425781 169.476562 110.671875 168.488281 110.933594 167.503906 C 111.304688 166.125 111.707031 164.757812 112.148438 163.398438 C 112.460938 162.429688 112.789062 161.464844 113.140625 160.507812 C 113.625 159.167969 114.148438 157.839844 114.703125 156.523438 C 114.824219 156.238281 114.945312 155.949219 115.070312 155.664062 C 115.351562 155.015625 115.644531 154.371094 115.941406 153.730469 C 116.542969 152.4375 117.179688 151.160156 117.847656 149.898438 C 118.324219 148.996094 118.816406 148.105469 119.328125 147.222656 C 120.039062 145.984375 120.78125 144.769531 121.558594 143.570312 C 122.011719 142.871094 122.476562 142.175781 122.949219 141.492188 C 123.054688 141.339844 123.160156 141.1875 123.269531 141.035156 C 124.085938 139.867188 124.933594 138.71875 125.8125 137.59375 C 126.441406 136.789062 127.082031 135.996094 127.738281 135.214844 C 128.65625 134.125 129.601562 133.054688 130.574219 132.011719 C 131.269531 131.265625 131.980469 130.53125 132.699219 129.8125 C 133.007812 129.503906 133.316406 129.203125 133.628906 128.902344 C 134.34375 128.210938 135.070312 127.535156 135.808594 126.867188 C 136.566406 126.1875 137.335938 125.519531 138.117188 124.863281 C 139.214844 123.953125 140.332031 123.066406 141.472656 122.203125 C 142.285156 121.589844 143.113281 120.992188 143.949219 120.410156 C 144.941406 119.71875 145.945312 119.046875 146.96875 118.398438 C 147.152344 118.28125 147.335938 118.164062 147.519531 118.046875 L 147.667969 117.949219 L 147.679688 117.941406 C 148.433594 117.472656 149.195312 117.015625 149.960938 116.570312 C 150.019531 116.535156 150.078125 116.503906 150.136719 116.46875 C 151.375 115.753906 152.628906 115.074219 153.898438 114.425781 C 154.804688 113.960938 155.722656 113.511719 156.644531 113.082031 C 157.941406 112.476562 159.246094 111.90625 160.566406 111.371094 C 161.085938 111.160156 161.605469 110.953125 162.128906 110.753906 C 162.558594 110.589844 162.988281 110.429688 163.421875 110.269531 C 164.761719 109.785156 166.113281 109.332031 167.476562 108.910156 C 168.453125 108.613281 169.433594 108.332031 170.417969 108.066406 L 170.707031 107.992188 C 171.921875 107.671875 173.136719 107.378906 174.359375 107.117188 C 174.429688 107.101562 174.503906 107.085938 174.574219 107.070312 C 175.570312 106.859375 176.570312 106.664062 177.574219 106.488281 L 178.050781 106.40625 C 179.296875 106.195312 180.546875 106.011719 181.804688 105.859375 C 182.816406 105.734375 183.828125 105.628906 184.84375 105.539062 C 186.265625 105.417969 187.6875 105.332031 189.113281 105.28125 C 190.132812 105.246094 191.148438 105.230469 192.167969 105.230469 C 192.851562 105.230469 193.539062 105.242188 194.226562 105.257812 C 194.964844 105.277344 195.703125 105.308594 196.441406 105.347656 C 196.496094 105.347656 196.554688 105.351562 196.609375 105.355469 C 197.570312 105.40625 198.527344 105.476562 199.488281 105.5625 C 199.765625 105.585938 200.039062 105.613281 200.316406 105.640625 C 201.457031 105.753906 202.597656 105.890625 203.734375 106.050781 C 204.742188 106.191406 205.746094 106.351562 206.75 106.527344 C 207.898438 106.730469 209.039062 106.957031 210.175781 107.210938 C 210.429688 107.265625 210.683594 107.324219 210.9375 107.382812 C 211.929688 107.609375 212.917969 107.855469 213.898438 108.121094 C 215.273438 108.492188 216.640625 108.894531 217.996094 109.335938 C 218.964844 109.648438 219.925781 109.980469 220.882812 110.328125 C 221.21875 110.453125 221.554688 110.578125 221.890625 110.707031 C 222.890625 111.082031 223.878906 111.480469 224.855469 111.894531 C 225.011719 111.960938 225.164062 112.023438 225.316406 112.089844 C 225.363281 112.113281 225.414062 112.132812 225.460938 112.152344 C 226.195312 112.46875 226.921875 112.796875 227.644531 113.136719 C 228.933594 113.738281 230.207031 114.375 231.46875 115.042969 C 232.363281 115.519531 233.253906 116.011719 234.132812 116.523438 C 235.367188 117.234375 236.582031 117.980469 237.773438 118.753906 C 238.398438 119.160156 239.019531 119.574219 239.632812 119.996094 C 239.855469 120.148438 240.078125 120.304688 240.300781 120.460938 C 241.464844 121.277344 242.605469 122.128906 243.730469 123.003906 C 243.914062 123.148438 244.09375 123.292969 244.277344 123.4375 C 244.890625 123.925781 245.496094 124.421875 246.09375 124.929688 C 246.4375 125.214844 246.773438 125.507812 247.113281 125.800781 C 247.847656 126.441406 248.574219 127.097656 249.285156 127.765625 C 250.03125 128.460938 250.757812 129.167969 251.476562 129.886719 C 251.722656 130.136719 251.96875 130.386719 252.214844 130.640625 C 252.957031 131.410156 253.6875 132.191406 254.402344 132.992188 C 255.082031 133.75 255.746094 134.519531 256.394531 135.300781 C 257.304688 136.390625 258.1875 137.507812 259.042969 138.648438 C 259.339844 139.046875 259.632812 139.445312 259.921875 139.847656 Z M 259.921875 139.847656 " fill-opacity="1" fill-rule="nonzero"/></g></g></g><g clip-path="url(#bdf22230d6)"><g clip-path="url(#f5d6168e17)"><g clip-path="url(#db269c7270)"><path fill="#ff9900" d="M 232.773438 253.15625 L 232.796875 253.1875 L 232.792969 253.191406 Z M 232.773438 253.15625 " fill-opacity="1" fill-rule="nonzero"/></g></g></g><g clip-path="url(#5b15935377)"><g clip-path="url(#6a7c33d485)"><g clip-path="url(#436a101a3d)"><path fill="#ff9900" d="M 216.089844 268.703125 C 214.886719 269.046875 213.65625 269.363281 212.433594 269.652344 L 205.480469 239.933594 C 206.253906 239.753906 207.035156 239.550781 207.796875 239.335938 Z M 190.007812 271.816406 C 188.761719 271.765625 187.496094 271.691406 186.253906 271.585938 L 188.859375 241.160156 C 189.652344 241.226562 190.457031 241.277344 191.25 241.308594 Z M 164.300781 266.742188 C 163.128906 266.3125 161.953125 265.851562 160.804688 265.371094 L 172.648438 237.203125 C 173.378906 237.511719 174.125 237.804688 174.871094 238.078125 Z M 141.410156 253.984375 C 140.429688 253.214844 139.453125 252.40625 138.511719 251.597656 L 158.503906 228.46875 C 159.101562 228.984375 159.71875 229.492188 160.335938 229.976562 Z M 123.625 234.761719 C 123.273438 234.234375 122.925781 233.699219 122.585938 233.167969 C 122.257812 232.652344 121.929688 232.125 121.613281 231.605469 L 147.757812 215.738281 C 147.960938 216.074219 148.171875 216.414062 148.378906 216.742188 C 148.597656 217.085938 148.820312 217.429688 149.046875 217.765625 Z M 142.050781 202.648438 L 112.640625 211.003906 C 112.300781 209.800781 111.984375 208.574219 111.695312 207.359375 L 141.453125 200.34375 C 141.632812 201.109375 141.832031 201.886719 142.046875 202.644531 Z M 228.191406 147.714844 C 227.59375 147.199219 226.972656 146.6875 226.351562 146.199219 L 245.265625 122.183594 C 246.25 122.953125 247.226562 123.753906 248.171875 124.570312 Z M 140.105469 186.125 L 109.570312 184.957031 C 109.617188 183.710938 109.699219 182.449219 109.804688 181.203125 L 140.253906 183.734375 C 140.1875 184.527344 140.132812 185.328125 140.105469 186.125 Z M 214.035156 138.980469 C 213.300781 138.675781 212.554688 138.382812 211.808594 138.109375 L 222.359375 109.4375 C 223.53125 109.863281 224.707031 110.324219 225.859375 110.804688 Z M 143.367188 169.753906 L 114.6875 159.265625 C 115.121094 158.09375 115.582031 156.917969 116.066406 155.769531 L 144.242188 167.53125 C 143.933594 168.261719 143.640625 169.011719 143.367188 169.753906 Z M 197.824219 135.03125 C 197.03125 134.96875 196.226562 134.917969 195.433594 134.890625 L 196.652344 104.378906 C 197.902344 104.429688 199.164062 104.503906 200.410156 104.609375 Z M 151.492188 155.214844 L 127.492188 136.363281 C 128.269531 135.382812 129.074219 134.402344 129.894531 133.457031 L 153.011719 153.375 C 152.496094 153.972656 151.984375 154.59375 151.492188 155.214844 Z M 181.199219 136.269531 C 180.425781 136.453125 179.648438 136.65625 178.886719 136.875 L 170.574219 107.515625 C 171.78125 107.171875 173.011719 106.851562 174.230469 106.5625 Z M 163.738281 143.902344 L 146.769531 118.546875 C 147.304688 118.1875 147.851562 117.832031 148.394531 117.484375 C 148.902344 117.160156 149.421875 116.839844 149.933594 116.527344 L 165.769531 142.605469 C 165.089844 143.019531 164.40625 143.457031 163.738281 143.902344 Z M 163.738281 143.902344 " fill-opacity="1" fill-rule="nonzero"/></g></g></g><g clip-path="url(#d82a7dcb8e)"><g clip-path="url(#d322434be5)"><g clip-path="url(#90c6521e0f)"><path fill="#ff9900" d="M 232.792969 253.191406 Z M 255.566406 127.417969 C 254.613281 126.433594 253.640625 125.472656 252.640625 124.535156 C 251.644531 123.597656 250.628906 122.683594 249.585938 121.792969 C 248.546875 120.902344 247.488281 120.035156 246.40625 119.191406 C 245.328125 118.351562 244.230469 117.535156 243.109375 116.746094 C 241.992188 115.953125 240.855469 115.191406 239.703125 114.453125 C 238.550781 113.714844 237.378906 113.003906 236.191406 112.320312 C 235.003906 111.636719 233.804688 110.980469 232.585938 110.355469 C 231.367188 109.726562 230.136719 109.128906 228.890625 108.558594 C 227.644531 107.988281 226.386719 107.445312 225.117188 106.933594 C 223.847656 106.421875 222.5625 105.941406 221.269531 105.488281 C 219.976562 105.035156 218.675781 104.613281 217.363281 104.222656 C 216.046875 103.832031 214.726562 103.46875 213.398438 103.140625 C 212.066406 102.808594 210.730469 102.511719 209.386719 102.242188 C 208.042969 101.972656 206.691406 101.738281 205.335938 101.53125 C 203.980469 101.328125 202.621094 101.152344 201.257812 101.011719 C 199.894531 100.867188 198.53125 100.757812 197.160156 100.679688 C 195.792969 100.597656 194.421875 100.550781 193.050781 100.535156 C 191.679688 100.519531 190.308594 100.539062 188.941406 100.585938 C 187.570312 100.632812 186.199219 100.714844 184.835938 100.828125 C 183.46875 100.9375 182.105469 101.082031 180.742188 101.257812 C 179.382812 101.433594 178.027344 101.640625 176.675781 101.878906 C 175.328125 102.113281 173.980469 102.382812 172.644531 102.683594 C 171.304688 102.984375 169.976562 103.316406 168.652344 103.679688 C 167.328125 104.042969 166.015625 104.433594 164.710938 104.855469 C 163.40625 105.28125 162.109375 105.734375 160.828125 106.214844 C 159.542969 106.699219 158.269531 107.210938 157.011719 107.753906 C 155.75 108.296875 154.503906 108.867188 153.269531 109.46875 C 152.035156 110.070312 150.816406 110.695312 149.613281 111.355469 C 148.40625 112.011719 147.21875 112.695312 146.046875 113.40625 C 144.875 114.117188 143.71875 114.855469 142.578125 115.621094 C 141.441406 116.386719 140.320312 117.179688 139.21875 117.996094 C 138.117188 118.8125 137.035156 119.65625 135.96875 120.523438 C 134.90625 121.390625 133.867188 122.28125 132.84375 123.199219 C 131.824219 124.113281 130.824219 125.054688 129.84375 126.015625 C 128.867188 126.976562 127.910156 127.960938 126.980469 128.96875 C 126.046875 129.976562 125.140625 131.003906 124.253906 132.050781 C 123.371094 133.097656 122.511719 134.167969 121.675781 135.253906 C 120.839844 136.34375 120.03125 137.449219 119.25 138.578125 C 118.464844 139.703125 117.707031 140.84375 116.976562 142.007812 C 116.246094 143.167969 115.542969 144.34375 114.867188 145.539062 C 114.191406 146.730469 113.546875 147.9375 112.925781 149.164062 C 112.304688 150.386719 111.714844 151.621094 111.152344 152.875 C 110.589844 154.125 110.058594 155.386719 109.554688 156.660156 C 109.050781 157.9375 108.578125 159.222656 108.136719 160.519531 C 107.691406 161.816406 107.277344 163.125 106.894531 164.441406 C 106.511719 165.757812 106.160156 167.082031 105.839844 168.414062 C 105.519531 169.746094 105.226562 171.082031 104.96875 172.429688 C 104.710938 173.773438 104.484375 175.125 104.285156 176.480469 C 104.089844 177.839844 103.925781 179.199219 103.792969 180.5625 C 103.660156 181.925781 103.558594 183.292969 103.488281 184.660156 C 103.421875 186.027344 103.382812 187.394531 103.378906 188.765625 C 103.371094 190.136719 103.398438 191.503906 103.457031 192.875 C 103.511719 194.242188 103.601562 195.609375 103.726562 196.972656 C 103.847656 198.335938 104 199.695312 104.183594 201.054688 C 104.371094 202.410156 104.585938 203.761719 104.832031 205.109375 C 105.082031 206.457031 105.359375 207.796875 105.671875 209.128906 C 105.980469 210.464844 106.320312 211.789062 106.691406 213.105469 C 107.066406 214.425781 107.46875 215.734375 107.898438 217.03125 C 108.332031 218.332031 108.796875 219.617188 109.289062 220.894531 C 109.78125 222.171875 110.304688 223.4375 110.855469 224.691406 C 111.40625 225.945312 111.988281 227.183594 112.597656 228.410156 C 113.207031 229.636719 113.84375 230.847656 114.507812 232.042969 C 115.175781 233.238281 115.867188 234.417969 116.589844 235.582031 C 117.308594 236.746094 118.058594 237.890625 118.832031 239.023438 C 119.605469 240.152344 120.40625 241.261719 121.230469 242.351562 C 122.054688 243.445312 122.90625 244.515625 123.78125 245.570312 C 124.660156 246.621094 125.558594 247.652344 126.480469 248.664062 C 127.40625 249.671875 128.351562 250.660156 129.324219 251.628906 C 130.292969 252.59375 131.285156 253.535156 132.296875 254.457031 C 133.3125 255.375 134.347656 256.273438 135.402344 257.144531 C 136.457031 258.015625 137.535156 258.863281 138.628906 259.683594 C 139.722656 260.507812 140.835938 261.304688 141.96875 262.074219 C 143.101562 262.84375 144.25 263.585938 145.417969 264.304688 C 146.585938 265.019531 147.769531 265.710938 148.96875 266.371094 C 150.167969 267.035156 151.382812 267.667969 152.609375 268.273438 C 153.839844 268.878906 155.082031 269.453125 156.335938 270 C 157.59375 270.546875 158.859375 271.066406 160.140625 271.554688 C 161.417969 272.042969 162.710938 272.503906 164.011719 272.929688 C 165.3125 273.359375 166.625 273.757812 167.945312 274.125 C 169.265625 274.492188 170.589844 274.832031 171.925781 275.136719 C 173.261719 275.441406 174.605469 275.71875 175.953125 275.960938 C 177.304688 276.207031 178.65625 276.417969 180.015625 276.597656 C 181.375 276.78125 182.734375 276.929688 184.101562 277.046875 C 185.46875 277.164062 186.835938 277.25 188.207031 277.304688 C 189.574219 277.359375 190.945312 277.378906 192.316406 277.371094 C 193.6875 277.359375 195.058594 277.320312 196.425781 277.246094 C 197.796875 277.171875 199.164062 277.070312 200.527344 276.933594 C 201.894531 276.796875 203.253906 276.628906 204.609375 276.425781 C 205.96875 276.226562 207.320312 275.996094 208.664062 275.734375 C 210.011719 275.472656 211.351562 275.179688 212.683594 274.851562 C 214.015625 274.527344 215.339844 274.171875 216.65625 273.785156 C 217.972656 273.402344 219.28125 272.984375 220.578125 272.539062 C 221.875 272.089844 223.160156 271.613281 224.433594 271.109375 C 225.710938 270.601562 226.972656 270.066406 228.222656 269.5 C 229.472656 268.9375 230.710938 268.34375 231.933594 267.71875 C 233.15625 267.097656 234.363281 266.445312 235.554688 265.769531 L 233.011719 261.953125 L 231.730469 260.027344 L 230.464844 258.128906 C 227.144531 259.984375 223.707031 261.589844 220.152344 262.953125 C 218.449219 263.605469 216.71875 264.199219 214.96875 264.734375 C 213.824219 265.082031 212.671875 265.40625 211.511719 265.703125 C 209.394531 266.25 207.257812 266.703125 205.105469 267.066406 C 200.15625 267.902344 195.171875 268.265625 190.15625 268.15625 C 190.042969 268.152344 189.929688 268.148438 189.8125 268.148438 C 188.730469 268.117188 187.644531 268.066406 186.558594 267.996094 C 179.320312 267.507812 172.28125 266.058594 165.441406 263.648438 C 164.304688 263.25 163.179688 262.824219 162.0625 262.371094 C 161.464844 262.132812 160.871094 261.882812 160.28125 261.628906 C 155.574219 259.589844 151.109375 257.117188 146.886719 254.214844 C 145.667969 253.375 144.46875 252.5 143.296875 251.589844 C 142.34375 250.851562 141.40625 250.089844 140.488281 249.304688 C 138.578125 247.679688 136.742188 245.957031 134.996094 244.15625 C 131.695312 240.742188 128.722656 237.0625 126.082031 233.117188 C 125.742188 232.609375 125.40625 232.097656 125.078125 231.578125 C 124.757812 231.078125 124.445312 230.574219 124.140625 230.066406 C 121.667969 225.988281 119.578125 221.722656 117.875 217.269531 C 116.988281 214.945312 116.210938 212.574219 115.546875 210.171875 C 115.226562 209.007812 114.929688 207.835938 114.664062 206.65625 C 114.332031 205.191406 114.039062 203.722656 113.792969 202.242188 C 112.949219 197.183594 112.597656 192.09375 112.742188 186.96875 C 112.761719 186.339844 112.785156 185.707031 112.820312 185.078125 C 112.878906 183.878906 112.972656 182.675781 113.089844 181.476562 C 113.796875 174.257812 115.457031 167.265625 118.078125 160.5 C 118.476562 159.472656 118.894531 158.457031 119.332031 157.449219 L 119.449219 157.175781 C 121.476562 152.570312 123.917969 148.199219 126.773438 144.054688 C 128.003906 142.277344 129.308594 140.546875 130.683594 138.871094 C 131.441406 137.945312 132.21875 137.039062 133.019531 136.148438 C 134.253906 134.773438 135.539062 133.441406 136.867188 132.15625 C 140.6875 128.46875 144.832031 125.195312 149.304688 122.332031 L 149.476562 122.222656 C 150.417969 121.621094 151.371094 121.042969 152.335938 120.484375 C 158.507812 116.898438 165.046875 114.195312 171.949219 112.378906 C 173.09375 112.078125 174.242188 111.804688 175.402344 111.554688 C 176.558594 111.304688 177.710938 111.082031 178.867188 110.886719 C 183.929688 110.03125 189.023438 109.671875 194.15625 109.804688 C 194.914062 109.824219 195.671875 109.855469 196.429688 109.894531 C 197.601562 109.960938 198.769531 110.050781 199.933594 110.167969 C 206.945312 110.863281 213.746094 112.460938 220.328125 114.960938 C 221.417969 115.371094 222.496094 115.808594 223.566406 116.269531 C 223.605469 116.289062 223.648438 116.304688 223.6875 116.324219 C 228.394531 118.359375 232.859375 120.832031 237.082031 123.738281 C 238.582031 124.769531 240.046875 125.855469 241.476562 126.996094 C 242.386719 127.71875 243.277344 128.460938 244.15625 129.226562 C 245.824219 130.679688 247.429688 132.203125 248.96875 133.792969 C 251.546875 136.457031 253.921875 139.285156 256.101562 142.28125 L 263.855469 137.347656 C 261.335938 133.835938 258.570312 130.527344 255.566406 127.417969 Z M 228.226562 143.816406 C 224.257812 140.648438 219.941406 138.046875 215.277344 136.019531 C 214.503906 135.679688 213.722656 135.359375 212.933594 135.058594 C 208.152344 133.21875 203.214844 132.03125 198.121094 131.492188 C 197.273438 131.40625 196.425781 131.335938 195.574219 131.28125 C 190.429688 130.964844 185.332031 131.328125 180.285156 132.371094 C 179.445312 132.542969 178.609375 132.738281 177.773438 132.949219 C 172.730469 134.234375 167.945312 136.164062 163.421875 138.742188 C 162.671875 139.171875 161.925781 139.621094 161.1875 140.082031 C 161.105469 140.132812 161.027344 140.183594 160.949219 140.234375 C 156.597656 143.003906 152.6875 146.292969 149.214844 150.105469 C 148.625 150.75 148.054688 151.410156 147.5 152.078125 C 144.121094 156.148438 141.351562 160.597656 139.195312 165.425781 C 138.835938 166.226562 138.496094 167.039062 138.171875 167.855469 C 136.222656 172.820312 134.972656 177.949219 134.429688 183.25 C 134.339844 184.132812 134.269531 185.015625 134.21875 185.898438 C 133.914062 191.242188 134.34375 196.523438 135.507812 201.742188 C 135.703125 202.605469 135.914062 203.464844 136.148438 204.320312 C 137.5625 209.496094 139.660156 214.375 142.441406 218.960938 C 142.667969 219.335938 142.898438 219.710938 143.136719 220.078125 C 143.378906 220.460938 143.625 220.84375 143.878906 221.21875 C 146.859375 225.675781 150.398438 229.636719 154.492188 233.105469 C 155.167969 233.679688 155.859375 234.234375 156.558594 234.773438 C 160.792969 238.03125 165.398438 240.652344 170.367188 242.628906 C 171.1875 242.957031 172.015625 243.265625 172.851562 243.558594 C 177.886719 245.304688 183.066406 246.339844 188.390625 246.667969 C 189.269531 246.722656 190.148438 246.753906 191.03125 246.769531 C 196.320312 246.855469 201.523438 246.226562 206.640625 244.882812 C 207.484375 244.660156 208.324219 244.421875 209.164062 244.160156 C 212.414062 243.144531 215.550781 241.851562 218.574219 240.28125 L 216.023438 236.453125 L 214.757812 234.558594 L 213.460938 232.609375 C 191.472656 243.464844 164.3125 236.257812 150.875 215.152344 C 136.472656 192.535156 143.199219 162.390625 165.867188 147.957031 C 187.125 134.421875 214.96875 139.433594 230.226562 158.757812 L 238 153.808594 C 235.667969 150.757812 233.054688 147.964844 230.160156 145.433594 C 229.527344 144.878906 228.882812 144.339844 228.226562 143.816406 Z M 228.226562 143.816406 " fill-opacity="1" fill-rule="nonzero"/></g></g></g><g clip-path="url(#de63f2d89b)"><g clip-path="url(#0b6d0e048f)"><g clip-path="url(#0ff075b456)"><path fill="#ffffff" d="M 227.070312 262.96875 L 227.863281 264.628906 L 228.644531 266.277344 C 229.578125 265.832031 230.519531 265.359375 231.441406 264.882812 L 230.597656 263.261719 L 229.746094 261.632812 C 228.871094 262.09375 227.96875 262.542969 227.070312 262.96875 Z M 221.132812 265.519531 C 220.910156 265.601562 220.6875 265.6875 220.464844 265.769531 L 221.109375 267.5 L 221.742188 269.203125 C 221.976562 269.117188 222.207031 269.027344 222.4375 268.9375 C 223.175781 268.65625 223.917969 268.359375 224.648438 268.058594 L 223.953125 266.375 L 223.246094 264.675781 C 222.546875 264.964844 221.835938 265.25 221.132812 265.519531 Z M 215.714844 267.375 C 215.027344 267.585938 214.332031 267.785156 213.640625 267.976562 L 213.996094 269.269531 L 214.132812 269.761719 L 214.613281 271.511719 C 215.613281 271.234375 216.621094 270.9375 217.609375 270.625 L 217.0625 268.894531 L 216.511719 267.132812 C 216.246094 267.214844 215.980469 267.296875 215.714844 267.375 Z M 206.648438 269.582031 L 206.980469 271.40625 L 207.304688 273.183594 C 208.320312 272.996094 209.351562 272.789062 210.367188 272.5625 L 209.976562 270.796875 L 209.578125 268.988281 C 208.609375 269.203125 207.621094 269.402344 206.648438 269.582031 Z M 199.542969 270.5625 L 199.714844 272.414062 L 199.878906 274.210938 C 200.910156 274.113281 201.953125 273.996094 202.980469 273.863281 L 202.753906 272.070312 L 202.515625 270.226562 C 201.53125 270.359375 200.53125 270.46875 199.542969 270.5625 Z M 232.796875 253.1875 Z M 192.375 270.921875 L 192.386719 272.789062 L 192.390625 274.585938 C 193.425781 274.578125 194.476562 274.554688 195.515625 274.507812 L 195.441406 272.710938 L 195.367188 270.847656 C 194.375 270.890625 193.371094 270.914062 192.375 270.921875 Z M 186.324219 270.734375 C 185.953125 270.710938 185.582031 270.683594 185.210938 270.652344 L 185.054688 272.515625 L 184.910156 274.304688 C 185.941406 274.386719 186.988281 274.453125 188.023438 274.5 L 188.109375 272.710938 L 188.15625 271.726562 L 188.199219 270.84375 C 187.574219 270.8125 186.953125 270.773438 186.324219 270.734375 Z M 178.097656 269.761719 L 177.78125 271.609375 L 177.476562 273.371094 C 178.496094 273.542969 179.535156 273.699219 180.5625 273.835938 L 180.800781 272.0625 L 181.054688 270.203125 C 180.070312 270.074219 179.074219 269.921875 178.097656 269.757812 Z M 171.085938 268.253906 L 170.609375 270.074219 L 170.152344 271.796875 C 171.15625 272.0625 172.179688 272.308594 173.1875 272.53125 L 173.578125 270.789062 L 173.992188 268.953125 C 173.027344 268.738281 172.050781 268.503906 171.089844 268.25 Z M 164.488281 266.234375 L 164.238281 266.144531 L 164.054688 266.652344 L 163.601562 267.917969 L 163 269.59375 C 163.976562 269.941406 164.96875 270.277344 165.957031 270.589844 L 166.5 268.886719 L 167.074219 267.089844 C 166.210938 266.820312 165.34375 266.53125 164.488281 266.230469 Z M 211.464844 236.523438 L 212.164062 238.230469 L 212.855469 239.914062 C 213.824219 239.511719 214.796875 239.082031 215.742188 238.625 L 214.953125 236.980469 L 214.160156 235.324219 C 213.277344 235.746094 212.371094 236.148438 211.464844 236.523438 Z M 204.75 238.757812 L 205.207031 240.550781 L 205.65625 242.304688 C 205.777344 242.273438 205.894531 242.242188 206.011719 242.210938 C 206.816406 242 207.621094 241.765625 208.414062 241.519531 C 208.507812 241.488281 208.601562 241.460938 208.695312 241.429688 L 208.144531 239.699219 L 207.585938 237.941406 C 206.65625 238.234375 205.699219 238.507812 204.75 238.753906 Z M 197.800781 240.039062 L 198.007812 241.886719 L 198.207031 243.679688 C 199.246094 243.5625 200.300781 243.410156 201.332031 243.234375 L 201.027344 241.453125 L 200.714844 239.625 C 199.753906 239.785156 198.773438 239.925781 197.800781 240.035156 Z M 159.179688 264.152344 C 158.65625 263.925781 158.121094 263.6875 157.597656 263.445312 L 156.804688 265.164062 L 156.0625 266.773438 C 156.609375 267.023438 157.167969 267.269531 157.71875 267.507812 C 158.117188 267.679688 158.523438 267.851562 158.921875 268.019531 L 159.613281 266.378906 L 160.339844 264.636719 C 159.953125 264.480469 159.5625 264.3125 159.183594 264.148438 Z M 190.738281 240.351562 L 190.714844 241.28125 L 190.6875 242.21875 L 190.644531 244.015625 C 190.808594 244.019531 190.972656 244.023438 191.140625 244.023438 C 192.027344 244.039062 192.917969 244.03125 193.800781 244 L 193.742188 242.203125 L 193.683594 240.339844 C 192.707031 240.371094 191.714844 240.375 190.738281 240.351562 Z M 183.691406 239.703125 L 183.390625 241.554688 L 183.101562 243.320312 C 184.136719 243.484375 185.191406 243.625 186.230469 243.734375 L 186.421875 241.949219 L 186.617188 240.089844 C 185.644531 239.988281 184.660156 239.859375 183.691406 239.703125 Z M 151.222656 260.175781 L 150.285156 261.816406 L 149.402344 263.359375 C 150.304688 263.871094 151.222656 264.371094 152.140625 264.851562 L 152.96875 263.277344 L 153.84375 261.605469 C 152.96875 261.148438 152.085938 260.664062 151.222656 260.175781 Z M 176.800781 238.097656 L 176.25 239.898438 L 175.722656 241.601562 C 176.726562 241.910156 177.75 242.191406 178.769531 242.441406 L 179.195312 240.707031 L 179.648438 238.882812 C 178.695312 238.648438 177.738281 238.386719 176.804688 238.101562 Z M 145.324219 256.476562 L 145.160156 256.363281 L 144.078125 257.921875 L 143.070312 259.378906 L 143.238281 259.496094 C 144.035156 260.042969 144.851562 260.585938 145.664062 261.105469 L 146.625 259.613281 L 147.648438 258.019531 C 146.863281 257.519531 146.082031 257 145.324219 256.476562 Z M 170.195312 235.574219 L 169.402344 237.285156 L 168.648438 238.898438 C 169.5625 239.320312 170.5 239.722656 171.433594 240.09375 L 171.550781 240.140625 L 172.210938 238.488281 L 172.710938 237.226562 L 172.90625 236.734375 C 171.996094 236.378906 171.085938 235.988281 170.195312 235.574219 Z M 141.59375 253.75 C 140.878906 253.195312 140.15625 252.617188 139.457031 252.035156 L 139.277344 252.25 L 138.242188 253.488281 L 137.105469 254.851562 C 137.902344 255.511719 138.722656 256.167969 139.542969 256.800781 L 140.625 255.398438 L 141.785156 253.898438 Z M 164 232.167969 L 162.972656 233.761719 L 162.011719 235.253906 C 162.890625 235.820312 163.804688 236.371094 164.71875 236.886719 L 165.59375 235.339844 L 166.527344 233.695312 C 165.671875 233.210938 164.820312 232.699219 164 232.167969 Z M 134.15625 247.21875 L 132.820312 248.566406 L 131.570312 249.820312 C 132.304688 250.550781 133.0625 251.273438 133.824219 251.976562 L 135.027344 250.675781 L 136.3125 249.28125 C 135.585938 248.609375 134.859375 247.914062 134.15625 247.21875 Z M 158.332031 227.941406 L 157.089844 229.375 L 155.933594 230.71875 C 156.054688 230.820312 156.171875 230.921875 156.292969 231.023438 C 156.933594 231.566406 157.59375 232.101562 158.261719 232.613281 C 158.304688 232.644531 158.347656 232.675781 158.390625 232.710938 L 159.46875 231.300781 L 160.621094 229.796875 C 159.84375 229.207031 159.074219 228.578125 158.332031 227.9375 Z M 129.304688 241.957031 L 127.851562 243.179688 L 126.496094 244.320312 C 127.164062 245.113281 127.855469 245.902344 128.550781 246.667969 L 129.863281 245.476562 L 131.269531 244.199219 C 130.601562 243.46875 129.941406 242.714844 129.300781 241.957031 Z M 153.3125 222.972656 L 151.882812 224.226562 L 150.554688 225.394531 C 151.246094 226.183594 151.96875 226.957031 152.707031 227.703125 L 153.964844 226.460938 L 155.320312 225.128906 C 154.632812 224.429688 153.957031 223.707031 153.3125 222.972656 Z M 124.925781 236.289062 L 123.375 237.382812 L 121.929688 238.402344 C 122.523438 239.246094 123.144531 240.09375 123.769531 240.917969 L 125.179688 239.847656 L 126.695312 238.695312 C 126.089844 237.90625 125.496094 237.097656 124.925781 236.289062 Z M 149.023438 217.359375 L 148.851562 217.472656 L 147.4375 218.40625 L 145.960938 219.382812 C 146.027344 219.484375 146.09375 219.585938 146.164062 219.6875 C 146.683594 220.457031 147.222656 221.222656 147.773438 221.960938 L 149.191406 220.902344 L 150.714844 219.769531 C 150.132812 218.988281 149.5625 218.175781 149.023438 217.359375 Z M 119.414062 231.21875 L 117.886719 232.109375 C 118.40625 233.003906 118.953125 233.898438 119.5 234.773438 L 120.996094 233.828125 L 122.429688 232.921875 L 122.605469 232.8125 C 122.328125 232.378906 122.054688 231.9375 121.789062 231.496094 C 121.539062 231.085938 121.292969 230.671875 121.054688 230.261719 Z M 143.828125 212.035156 L 142.234375 212.800781 C 142.683594 213.742188 143.171875 214.6875 143.675781 215.605469 L 145.226562 214.75 L 146.890625 213.832031 C 146.417969 212.976562 145.964844 212.097656 145.542969 211.21875 Z M 260.5625 137.511719 L 259.039062 138.652344 L 257.625 139.710938 C 257.894531 140.070312 258.164062 140.433594 258.425781 140.800781 L 261.527344 138.828125 C 261.210938 138.382812 260.886719 137.945312 260.5625 137.511719 Z M 232.15625 151.171875 L 230.769531 152.472656 L 229.480469 153.683594 C 230.152344 154.394531 230.808594 155.136719 231.4375 155.886719 L 232.792969 154.75 L 234.25 153.53125 C 233.578125 152.726562 232.871094 151.933594 232.15625 151.171875 Z M 116.003906 224.734375 L 114.402344 225.488281 C 114.84375 226.425781 115.308594 227.367188 115.78125 228.285156 L 117.355469 227.472656 L 119.046875 226.597656 C 118.589844 225.71875 118.144531 224.816406 117.722656 223.921875 Z M 141.128906 205.226562 L 139.441406 205.765625 C 139.757812 206.765625 140.109375 207.765625 140.484375 208.746094 L 142.136719 208.109375 L 143.910156 207.429688 C 143.5625 206.515625 143.234375 205.582031 142.9375 204.648438 Z M 255.816406 131.730469 L 254.398438 132.992188 L 253.082031 134.171875 C 253.742188 134.910156 254.394531 135.667969 255.03125 136.429688 L 256.390625 135.300781 L 257.851562 134.085938 C 257.191406 133.289062 256.507812 132.496094 255.820312 131.726562 Z M 228.359375 147.519531 C 227.78125 147.011719 227.1875 146.515625 226.59375 146.035156 L 226.417969 146.253906 L 225.402344 147.515625 L 224.292969 148.894531 C 225.054688 149.507812 225.808594 150.148438 226.535156 150.804688 L 227.722656 149.492188 L 228.996094 148.082031 C 228.785156 147.894531 228.574219 147.707031 228.363281 147.515625 Z M 113.175781 217.976562 L 111.515625 218.589844 C 111.636719 218.914062 111.757812 219.242188 111.882812 219.566406 C 112.125 220.207031 112.382812 220.855469 112.644531 221.496094 L 114.28125 220.820312 L 116.039062 220.101562 C 115.789062 219.488281 115.542969 218.867188 115.308594 218.25 C 115.1875 217.941406 115.070312 217.628906 114.957031 217.316406 Z M 139.40625 198.113281 L 137.65625 198.417969 C 137.8125 199.316406 137.988281 200.21875 138.1875 201.109375 C 138.21875 201.242188 138.246094 201.375 138.277344 201.503906 L 140.003906 201.105469 L 141.550781 200.746094 L 141.851562 200.675781 C 141.632812 199.722656 141.4375 198.753906 141.273438 197.792969 Z M 250.582031 126.382812 L 249.285156 127.765625 L 248.074219 129.054688 C 248.796875 129.734375 249.519531 130.429688 250.21875 131.132812 L 251.476562 129.886719 L 252.824219 128.550781 C 252.09375 127.820312 251.339844 127.089844 250.582031 126.382812 Z M 220.367188 141.714844 L 219.398438 143.339844 L 218.484375 144.859375 C 219.324219 145.363281 220.164062 145.894531 220.972656 146.441406 L 221.96875 144.976562 L 223.035156 143.410156 C 222.167969 142.820312 221.269531 142.25 220.367188 141.714844 Z M 112.515625 210.566406 L 110.953125 210.992188 L 109.246094 211.457031 C 109.519531 212.457031 109.808594 213.464844 110.113281 214.449219 L 111.804688 213.921875 L 113.617188 213.359375 C 113.367188 212.554688 113.125 211.738281 112.902344 210.921875 C 112.859375 210.777344 112.820312 210.632812 112.78125 210.488281 Z M 138.675781 190.828125 L 136.902344 190.886719 C 136.933594 191.933594 137 192.996094 137.09375 194.035156 L 138.859375 193.875 L 140.742188 193.703125 C 140.65625 192.734375 140.597656 191.742188 140.566406 190.765625 Z M 244.898438 121.515625 L 243.726562 123.007812 L 242.632812 124.402344 C 242.816406 124.542969 242.996094 124.6875 243.179688 124.832031 C 243.773438 125.304688 244.371094 125.792969 244.949219 126.28125 L 246.09375 124.929688 L 247.136719 123.695312 L 247.320312 123.480469 C 246.527344 122.816406 245.714844 122.152344 244.898438 121.515625 Z M 214.214844 138.550781 C 214.011719 138.464844 213.8125 138.375 213.609375 138.292969 L 213.421875 138.730469 L 212.871094 140.027344 L 212.175781 141.667969 C 213.078125 142.046875 213.980469 142.460938 214.859375 142.890625 L 215.644531 141.296875 L 216.484375 139.605469 C 215.738281 139.238281 214.980469 138.886719 214.214844 138.554688 Z M 109.355469 203.84375 L 107.609375 204.160156 C 107.792969 205.175781 107.996094 206.207031 108.214844 207.21875 L 109.945312 206.839844 L 111.796875 206.433594 C 111.589844 205.464844 111.394531 204.480469 111.222656 203.507812 Z M 138.957031 183.511719 L 137.183594 183.328125 C 137.179688 183.378906 137.175781 183.429688 137.171875 183.480469 C 137.082031 184.320312 137.015625 185.164062 136.964844 186.007812 C 136.957031 186.164062 136.945312 186.320312 136.941406 186.472656 L 138.71875 186.554688 L 140.605469 186.644531 C 140.652344 185.667969 140.730469 184.679688 140.832031 183.707031 Z M 240.730469 118.453125 C 240.097656 118.019531 239.453125 117.585938 238.808594 117.167969 L 237.773438 118.757812 L 236.804688 120.242188 C 237.425781 120.644531 238.042969 121.054688 238.644531 121.472656 C 238.859375 121.617188 239.070312 121.765625 239.28125 121.914062 L 240.300781 120.464844 L 241.394531 118.917969 C 241.171875 118.761719 240.949219 118.605469 240.730469 118.453125 Z M 206.449219 135.828125 L 205.957031 137.644531 L 205.488281 139.367188 C 206.433594 139.621094 207.382812 139.90625 208.3125 140.214844 L 208.878906 138.523438 L 209.476562 136.738281 C 208.476562 136.40625 207.460938 136.101562 206.449219 135.828125 Z M 108.394531 196.578125 L 106.625 196.738281 C 106.714844 197.769531 106.828125 198.8125 106.957031 199.839844 L 108.714844 199.613281 L 110.59375 199.375 C 110.472656 198.394531 110.363281 197.394531 110.277344 196.40625 Z M 140.234375 176.296875 L 138.5 175.871094 C 138.246094 176.886719 138.019531 177.925781 137.828125 178.953125 L 139.582031 179.277344 L 141.429688 179.621094 C 141.609375 178.65625 141.820312 177.6875 142.058594 176.738281 Z M 199.019531 134.367188 L 198.777344 136.222656 L 198.550781 138 C 199.519531 138.125 200.5 138.277344 201.460938 138.457031 L 201.792969 136.699219 L 202.140625 134.851562 C 201.109375 134.660156 200.058594 134.496094 199.019531 134.363281 Z M 232.355469 113.375 L 231.46875 115.042969 L 230.632812 116.613281 C 231.507812 117.078125 232.386719 117.5625 233.242188 118.058594 L 234.132812 116.523438 L 235.082031 114.886719 C 234.1875 114.371094 233.269531 113.859375 232.355469 113.375 Z M 143.394531 169.675781 L 142.480469 169.3125 L 140.816406 168.652344 L 140.757812 168.800781 C 140.390625 169.730469 140.042969 170.675781 139.730469 171.625 L 141.429688 172.1875 L 143.210938 172.777344 C 143.519531 171.847656 143.859375 170.914062 144.222656 170.003906 Z M 108.070312 189.253906 L 106.289062 189.257812 C 106.292969 190.292969 106.3125 191.34375 106.351562 192.375 L 108.125 192.308594 L 110.015625 192.234375 C 109.976562 191.242188 109.957031 190.238281 109.957031 189.246094 Z M 191.457031 133.917969 L 191.46875 135.785156 L 191.484375 137.585938 C 192.464844 137.574219 193.457031 137.59375 194.433594 137.640625 L 194.519531 135.847656 L 194.613281 133.980469 C 193.566406 133.929688 192.503906 133.910156 191.457031 133.921875 Z M 226.25 110.4375 C 226.03125 110.34375 225.8125 110.25 225.59375 110.15625 L 225.398438 110.613281 L 224.855469 111.894531 L 224.15625 113.53125 C 224.3125 113.597656 224.46875 113.664062 224.625 113.734375 C 224.679688 113.753906 224.726562 113.777344 224.78125 113.800781 C 225.484375 114.105469 226.191406 114.421875 226.886719 114.746094 L 227.640625 113.136719 L 228.445312 111.425781 C 227.722656 111.089844 226.984375 110.757812 226.25 110.4375 Z M 145.660156 162.703125 L 144.09375 161.820312 C 143.578125 162.730469 143.078125 163.671875 142.613281 164.613281 L 144.226562 165.40625 L 145.902344 166.230469 C 146.335938 165.351562 146.800781 164.472656 147.285156 163.621094 Z M 183.90625 134.515625 L 184.175781 136.355469 L 184.4375 138.140625 C 185.40625 137.996094 186.390625 137.878906 187.363281 137.792969 L 187.203125 135.996094 L 187.039062 134.144531 C 185.996094 134.238281 184.941406 134.363281 183.90625 134.515625 Z M 149.722656 156.589844 L 148.285156 155.488281 C 147.644531 156.324219 147.023438 157.1875 146.429688 158.054688 L 147.925781 159.070312 L 149.464844 160.109375 C 150.015625 159.296875 150.597656 158.492188 151.195312 157.714844 Z M 109.734375 182.046875 L 108.390625 181.929688 L 106.613281 181.78125 C 106.523438 182.8125 106.453125 183.863281 106.398438 184.894531 L 108.175781 184.980469 L 110.0625 185.074219 L 110.066406 184.976562 C 110.117188 184.019531 110.183594 183.050781 110.265625 182.09375 Z M 178.523438 135.59375 C 177.84375 135.765625 177.167969 135.949219 176.503906 136.144531 L 177.023438 137.921875 L 177.53125 139.660156 C 178.46875 139.386719 179.429688 139.132812 180.382812 138.910156 L 179.976562 137.144531 L 179.847656 136.605469 L 179.558594 135.339844 C 179.214844 135.421875 178.871094 135.507812 178.523438 135.59375 Z M 154.585938 151.097656 L 153.308594 149.804688 C 152.621094 150.480469 151.945312 151.183594 151.296875 151.894531 C 151.238281 151.960938 151.179688 152.023438 151.121094 152.089844 L 152.464844 153.304688 L 152.808594 153.613281 L 153.835938 154.542969 C 154.492188 153.816406 155.179688 153.101562 155.878906 152.414062 Z M 218.582031 107.546875 L 217.996094 109.339844 L 217.445312 111.03125 C 218.386719 111.335938 219.339844 111.664062 220.269531 112.003906 L 220.882812 110.328125 L 221.53125 108.558594 C 220.558594 108.207031 219.566406 107.863281 218.582031 107.546875 Z M 169.394531 138.78125 L 170.148438 140.460938 L 170.898438 142.121094 C 171.792969 141.71875 172.707031 141.335938 173.621094 140.984375 L 172.972656 139.285156 L 172.308594 137.566406 C 171.332031 137.941406 170.351562 138.351562 169.394531 138.78125 Z M 160.15625 146.332031 L 159.0625 144.867188 C 158.222656 145.496094 157.386719 146.152344 156.582031 146.828125 L 157.753906 148.226562 L 158.9375 149.632812 C 159.6875 149.003906 160.464844 148.390625 161.25 147.804688 Z M 164.851562 141.09375 C 164.128906 141.5 163.414062 141.929688 162.714844 142.367188 L 163.6875 143.917969 L 164.664062 145.46875 C 165.492188 144.949219 166.347656 144.441406 167.207031 143.96875 L 166.324219 142.371094 L 165.4375 140.765625 C 165.242188 140.871094 165.046875 140.980469 164.851562 141.09375 Z M 109.347656 174.664062 L 107.589844 174.359375 C 107.410156 175.378906 107.246094 176.414062 107.105469 177.441406 L 108.871094 177.679688 L 110.738281 177.933594 C 110.875 176.953125 111.027344 175.960938 111.203125 174.984375 Z M 211.367188 105.550781 L 210.9375 107.382812 L 210.535156 109.125 C 211.5 109.34375 212.476562 109.589844 213.433594 109.84375 L 213.902344 108.125 L 214.390625 106.308594 C 213.390625 106.039062 212.371094 105.785156 211.363281 105.550781 Z M 110.933594 167.503906 L 109.203125 167.046875 C 108.9375 168.046875 108.683594 169.066406 108.453125 170.074219 L 110.195312 170.46875 L 112.027344 170.882812 C 112.246094 169.917969 112.488281 168.945312 112.746094 167.984375 Z M 204 104.191406 L 203.738281 106.046875 L 203.488281 107.820312 C 204.46875 107.957031 205.464844 108.113281 206.4375 108.285156 L 206.753906 106.527344 L 207.085938 104.679688 C 206.0625 104.5 205.027344 104.339844 204 104.195312 Z M 113.136719 160.507812 L 111.449219 159.902344 C 111.097656 160.875 110.757812 161.871094 110.441406 162.855469 L 112.148438 163.402344 L 113.933594 163.972656 C 114.238281 163.027344 114.5625 162.078125 114.902344 161.144531 Z M 196.546875 103.480469 L 196.441406 105.347656 L 196.34375 107.136719 C 196.410156 107.140625 196.476562 107.144531 196.539062 107.148438 C 197.464844 107.199219 198.402344 107.265625 199.328125 107.347656 L 199.488281 105.5625 L 199.582031 104.542969 L 199.660156 103.699219 C 198.625 103.609375 197.578125 103.535156 196.546875 103.480469 Z M 115.941406 153.730469 L 114.3125 152.976562 C 114.015625 153.613281 113.722656 154.261719 113.445312 154.902344 C 113.3125 155.210938 113.175781 155.523438 113.046875 155.832031 L 114.703125 156.527344 L 115.601562 156.90625 L 116.425781 157.25 C 116.550781 156.953125 116.679688 156.652344 116.804688 156.359375 L 116.910156 156.121094 C 117.144531 155.585938 117.386719 155.046875 117.636719 154.515625 Z M 189.054688 103.417969 L 189.117188 105.28125 L 189.175781 107.082031 C 190.167969 107.042969 191.171875 107.027344 192.164062 107.027344 L 192.167969 105.230469 L 192.171875 103.363281 C 191.140625 103.363281 190.089844 103.382812 189.050781 103.417969 Z M 119.328125 147.222656 L 117.765625 146.328125 C 117.25 147.226562 116.742188 148.148438 116.253906 149.0625 L 117.847656 149.902344 L 119.496094 150.769531 C 119.964844 149.894531 120.449219 149.011719 120.941406 148.152344 Z M 181.585938 104.011719 L 181.808594 105.855469 L 182.027344 107.648438 C 183.011719 107.527344 184.011719 107.421875 185 107.335938 L 184.847656 105.539062 L 184.691406 103.6875 C 183.65625 103.777344 182.609375 103.886719 181.585938 104.011719 Z M 123.269531 141.035156 L 121.789062 140 C 121.691406 140.140625 121.59375 140.28125 121.5 140.417969 C 121.007812 141.128906 120.515625 141.863281 120.046875 142.59375 L 121.5625 143.570312 L 123.125 144.578125 C 123.578125 143.878906 124.046875 143.175781 124.515625 142.496094 C 124.609375 142.363281 124.699219 142.230469 124.792969 142.097656 Z M 174.191406 105.257812 L 174.578125 107.070312 L 174.953125 108.839844 C 175.925781 108.628906 176.914062 108.4375 177.886719 108.265625 L 177.578125 106.488281 L 177.257812 104.65625 C 176.238281 104.835938 175.207031 105.039062 174.191406 105.257812 Z M 128.140625 135.554688 L 127.742188 135.21875 L 126.347656 134.054688 C 125.683594 134.851562 125.019531 135.667969 124.386719 136.484375 L 125.816406 137.59375 L 127.277344 138.730469 C 127.6875 138.207031 128.101562 137.6875 128.523438 137.171875 C 128.734375 136.914062 128.945312 136.660156 129.160156 136.40625 Z M 166.9375 107.144531 L 167.480469 108.914062 L 168.011719 110.644531 C 168.960938 110.355469 169.925781 110.078125 170.886719 109.820312 L 170.417969 108.070312 L 169.941406 106.28125 C 168.9375 106.550781 167.925781 106.84375 166.9375 107.148438 Z M 132.703125 129.8125 L 131.417969 128.527344 C 130.683594 129.261719 129.953125 130.015625 129.25 130.777344 L 130.578125 132.011719 L 131.933594 133.269531 C 132.609375 132.542969 133.308594 131.820312 134.007812 131.117188 Z M 161.53125 109.007812 C 160.980469 109.21875 160.425781 109.441406 159.875 109.664062 L 160.570312 111.371094 L 161.253906 113.054688 C 161.777344 112.84375 162.3125 112.632812 162.839844 112.429688 C 163.234375 112.277344 163.640625 112.125 164.042969 111.980469 L 163.421875 110.273438 L 162.792969 108.539062 C 162.371094 108.691406 161.945312 108.851562 161.53125 109.011719 Z M 138.121094 124.867188 L 136.949219 123.46875 C 136.15625 124.136719 135.359375 124.824219 134.59375 125.519531 L 135.8125 126.867188 L 137.046875 128.234375 C 137.785156 127.570312 138.542969 126.910156 139.304688 126.273438 Z M 153.0625 112.789062 L 153.902344 114.425781 L 154.734375 116.050781 C 155.617188 115.597656 156.519531 115.152344 157.417969 114.734375 L 156.648438 113.082031 L 155.867188 111.414062 C 154.929688 111.855469 153.984375 112.316406 153.0625 112.792969 Z M 143.949219 120.40625 L 142.902344 118.910156 C 142.050781 119.503906 141.203125 120.121094 140.375 120.746094 L 141.472656 122.203125 L 142.582031 123.667969 C 143.371094 123.070312 144.1875 122.480469 145 121.910156 Z M 146.546875 116.492188 L 147.519531 118.046875 L 147.523438 118.050781 L 148.492188 119.597656 C 149.285156 119.097656 150.101562 118.609375 150.914062 118.136719 L 151.054688 118.054688 L 150.140625 116.472656 L 149.222656 114.882812 C 148.320312 115.402344 147.421875 115.945312 146.542969 116.496094 Z M 146.546875 116.492188 " fill-opacity="1" fill-rule="nonzero"/></g></g></g><g clip-path="url(#86f4fcb165)"><g clip-path="url(#4c8c56cdf6)"><g clip-path="url(#37eac13a43)"><path fill="#ffffff" d="M 232.773438 253.15625 L 232.796875 253.1875 L 232.792969 253.191406 Z M 232.773438 253.15625 " fill-opacity="1" fill-rule="nonzero"/></g></g></g></svg>